<?xml version="1.0" standalone="no"?>
<svg xmlns:xlink="http://www.w3.org/1999/xlink" id="wave" style="transform:rotate(0deg); transition: 0.3s" viewBox="0 0 1440 270" version="1.1" xmlns="http://www.w3.org/2000/svg"><defs><linearGradient id="sw-gradient-0" x1="0" x2="0" y1="1" y2="0"><stop stop-color="rgba(29, 149, 247, 1)" offset="0%"/><stop stop-color="rgba(255, 255, 255, 1)" offset="100%"/></linearGradient></defs><path style="transform:translate(0, 0px); opacity:1" fill="url(#sw-gradient-0)" d="M0,216L80,202.5C160,189,320,162,480,139.5C640,117,800,99,960,99C1120,99,1280,117,1440,135C1600,153,1760,171,1920,180C2080,189,2240,189,2400,166.5C2560,144,2720,99,2880,94.5C3040,90,3200,126,3360,148.5C3520,171,3680,180,3840,162C4000,144,4160,99,4320,81C4480,63,4640,72,4800,85.5C4960,99,5120,117,5280,103.5C5440,90,5600,45,5760,54C5920,63,6080,126,6240,139.5C6400,153,6560,117,6720,112.5C6880,108,7040,135,7200,157.5C7360,180,7520,198,7680,198C7840,198,8000,180,8160,153C8320,126,8480,90,8640,99C8800,108,8960,162,9120,162C9280,162,9440,108,9600,112.5C9760,117,9920,180,10080,175.5C10240,171,10400,99,10560,63C10720,27,10880,27,11040,45C11200,63,11360,99,11440,117L11520,135L11520,270L11440,270C11360,270,11200,270,11040,270C10880,270,10720,270,10560,270C10400,270,10240,270,10080,270C9920,270,9760,270,9600,270C9440,270,9280,270,9120,270C8960,270,8800,270,8640,270C8480,270,8320,270,8160,270C8000,270,7840,270,7680,270C7520,270,7360,270,7200,270C7040,270,6880,270,6720,270C6560,270,6400,270,6240,270C6080,270,5920,270,5760,270C5600,270,5440,270,5280,270C5120,270,4960,270,4800,270C4640,270,4480,270,4320,270C4160,270,4000,270,3840,270C3680,270,3520,270,3360,270C3200,270,3040,270,2880,270C2720,270,2560,270,2400,270C2240,270,2080,270,1920,270C1760,270,1600,270,1440,270C1280,270,1120,270,960,270C800,270,640,270,480,270C320,270,160,270,80,270L0,270Z"/><defs><linearGradient id="sw-gradient-1" x1="0" x2="0" y1="1" y2="0"><stop stop-color="rgba(188.118, 224.934, 255, 1)" offset="0%"/><stop stop-color="rgba(255, 255, 255, 1)" offset="100%"/></linearGradient></defs><path style="transform:translate(0, 50px); opacity:0.9" fill="url(#sw-gradient-1)" d="M0,0L80,31.5C160,63,320,126,480,135C640,144,800,99,960,103.5C1120,108,1280,162,1440,189C1600,216,1760,216,1920,189C2080,162,2240,108,2400,99C2560,90,2720,126,2880,135C3040,144,3200,126,3360,112.5C3520,99,3680,90,3840,99C4000,108,4160,135,4320,135C4480,135,4640,108,4800,121.5C4960,135,5120,189,5280,202.5C5440,216,5600,189,5760,171C5920,153,6080,144,6240,139.5C6400,135,6560,135,6720,126C6880,117,7040,99,7200,81C7360,63,7520,45,7680,36C7840,27,8000,27,8160,40.5C8320,54,8480,81,8640,85.5C8800,90,8960,72,9120,67.5C9280,63,9440,72,9600,94.5C9760,117,9920,153,10080,144C10240,135,10400,81,10560,67.5C10720,54,10880,81,11040,76.5C11200,72,11360,36,11440,18L11520,0L11520,270L11440,270C11360,270,11200,270,11040,270C10880,270,10720,270,10560,270C10400,270,10240,270,10080,270C9920,270,9760,270,9600,270C9440,270,9280,270,9120,270C8960,270,8800,270,8640,270C8480,270,8320,270,8160,270C8000,270,7840,270,7680,270C7520,270,7360,270,7200,270C7040,270,6880,270,6720,270C6560,270,6400,270,6240,270C6080,270,5920,270,5760,270C5600,270,5440,270,5280,270C5120,270,4960,270,4800,270C4640,270,4480,270,4320,270C4160,270,4000,270,3840,270C3680,270,3520,270,3360,270C3200,270,3040,270,2880,270C2720,270,2560,270,2400,270C2240,270,2080,270,1920,270C1760,270,1600,270,1440,270C1280,270,1120,270,960,270C800,270,640,270,480,270C320,270,160,270,80,270L0,270Z"/></svg>