<?xml version="1.0" standalone="no"?>
<svg xmlns:xlink="http://www.w3.org/1999/xlink" id="wave" style="transform:rotate(0deg); transition: 0.3s" viewBox="0 0 1440 260" version="1.1" xmlns="http://www.w3.org/2000/svg"><defs><linearGradient id="sw-gradient-0" x1="0" x2="0" y1="1" y2="0"><stop stop-color="rgba(123.125, 104.157, 238.053, 1)" offset="0%"/><stop stop-color="rgba(255, 255, 255, 1)" offset="100%"/></linearGradient></defs><path style="transform:translate(0, 0px); opacity:1" fill="url(#sw-gradient-0)" d="M0,26L80,21.7C160,17,320,9,480,39C640,69,800,139,960,147.3C1120,156,1280,104,1440,82.3C1600,61,1760,69,1920,91C2080,113,2240,147,2400,151.7C2560,156,2720,130,2880,117C3040,104,3200,104,3360,95.3C3520,87,3680,69,3840,73.7C4000,78,4160,104,4320,95.3C4480,87,4640,43,4800,52C4960,61,5120,121,5280,125.7C5440,130,5600,78,5760,82.3C5920,87,6080,147,6240,156C6400,165,6560,121,6720,108.3C6880,95,7040,113,7200,134.3C7360,156,7520,182,7680,169C7840,156,8000,104,8160,104C8320,104,8480,156,8640,147.3C8800,139,8960,69,9120,69.3C9280,69,9440,139,9600,169C9760,199,9920,191,10080,186.3C10240,182,10400,182,10560,177.7C10720,173,10880,165,11040,160.3C11200,156,11360,156,11440,156L11520,156L11520,260L11440,260C11360,260,11200,260,11040,260C10880,260,10720,260,10560,260C10400,260,10240,260,10080,260C9920,260,9760,260,9600,260C9440,260,9280,260,9120,260C8960,260,8800,260,8640,260C8480,260,8320,260,8160,260C8000,260,7840,260,7680,260C7520,260,7360,260,7200,260C7040,260,6880,260,6720,260C6560,260,6400,260,6240,260C6080,260,5920,260,5760,260C5600,260,5440,260,5280,260C5120,260,4960,260,4800,260C4640,260,4480,260,4320,260C4160,260,4000,260,3840,260C3680,260,3520,260,3360,260C3200,260,3040,260,2880,260C2720,260,2560,260,2400,260C2240,260,2080,260,1920,260C1760,260,1600,260,1440,260C1280,260,1120,260,960,260C800,260,640,260,480,260C320,260,160,260,80,260L0,260Z"/></svg>